<svg xmlns="http://www.w3.org/2000/svg" width="58" height="58" viewBox="0 0 58 58" fill="none">
<path d="M41.0078 44.8594C40.3825 44.8594 39.875 45.3669 39.875 45.9922C39.875 46.6175 40.3825 47.125 41.0078 47.125C41.6331 47.125 42.1406 46.6175 42.1406 45.9922C42.1406 45.3669 41.6331 44.8594 41.0078 44.8594Z" fill="#1166CB"/>
<path d="M56.8672 40.3281H55.7344V9.74219C55.7344 7.86829 54.2098 6.34375 52.3359 6.34375H5.66406C3.79016 6.34375 2.26562 7.86829 2.26562 9.74219V40.3281H1.13281C0.507273 40.3281 0 40.8353 0 41.4609V45.9922C0 49.1154 2.5409 51.6562 5.66406 51.6562H52.3359C55.4591 51.6562 58 49.1154 58 45.9922V41.4609C58 40.8353 57.4927 40.3281 56.8672 40.3281ZM4.53125 9.74219C4.53125 9.11755 5.03943 8.60938 5.66406 8.60938H52.3359C52.9606 8.60938 53.4688 9.11755 53.4688 9.74219V40.3281H36.4766C35.851 40.3281 35.3438 40.8353 35.3438 41.4609V42.5938H22.6562V41.4609C22.6562 40.8353 22.149 40.3281 21.5234 40.3281H4.53125V9.74219ZM55.7344 45.9922C55.7344 47.8661 54.2098 49.3906 52.3359 49.3906H5.66406C3.79016 49.3906 2.26562 47.8661 2.26562 45.9922V42.5938H20.3906V43.7266C20.3906 44.3522 20.8979 44.8594 21.5234 44.8594H36.4766C37.1021 44.8594 37.6094 44.3522 37.6094 43.7266V42.5938H55.7344V45.9922Z" fill="#1166CB"/>
<path d="M46.672 13.1406C44.1735 13.1406 42.1407 15.1733 42.1407 17.6718C42.1407 18.4805 42.3527 19.2568 42.7485 19.939L34.7329 27.3806C34.0351 26.9595 33.234 26.7344 32.3984 26.7344C31.5757 26.7344 30.7866 26.9529 30.0964 27.3617L26.1071 23.3724C26.5159 22.6821 26.7344 21.893 26.7344 21.0704C26.7344 18.5718 24.7017 16.5391 22.2031 16.5391C19.7046 16.5391 17.6719 18.5718 17.6719 21.0704C17.6719 21.8718 17.88 22.6411 18.2685 23.3184L13.6809 27.3924C12.9789 26.9639 12.1712 26.7344 11.3281 26.7344C8.82959 26.7344 6.79688 28.7671 6.79688 31.2657C6.79688 33.7642 8.82959 35.7969 11.3281 35.7969C13.8267 35.7969 15.8594 33.7642 15.8594 31.2657C15.8594 30.4642 15.6513 29.6949 15.2627 29.0176L19.8504 24.9437C20.5524 25.3721 21.3601 25.6016 22.2031 25.6016C23.0259 25.6016 23.815 25.3831 24.5051 24.9744L28.4944 28.9637C28.0857 29.6539 27.8672 30.443 27.8672 31.2657C27.8672 33.7642 29.8999 35.7969 32.3984 35.7969C34.897 35.7969 36.9297 33.7642 36.9297 31.2657C36.9297 30.4562 36.7176 29.6794 36.3215 28.9972L44.336 21.5562C45.0338 21.9777 45.8354 22.2031 46.672 22.2031C49.1705 22.2031 51.2032 20.1703 51.2032 17.6718C51.2032 15.1733 49.1705 13.1406 46.672 13.1406ZM11.3281 33.5313C10.0789 33.5313 9.0625 32.5149 9.0625 31.2657C9.0625 30.0164 10.0789 29.0001 11.3281 29.0001C12.5793 29.0001 13.5938 30.0144 13.5938 31.2657C13.5938 32.5149 12.5774 33.5313 11.3281 33.5313ZM22.2031 23.336C20.9519 23.336 19.9375 22.3217 19.9375 21.0704C19.9375 19.8211 20.9539 18.8047 22.2031 18.8047C23.4524 18.8047 24.4688 19.8211 24.4688 21.0704C24.4688 22.3174 23.4567 23.336 22.2031 23.336ZM32.3984 33.5313C31.1492 33.5313 30.1328 32.5149 30.1328 31.2657C30.1328 30.0162 31.1474 29.0001 32.3984 29.0001C33.6496 29.0001 34.6641 30.0144 34.6641 31.2657C34.6641 32.5149 33.6477 33.5313 32.3984 33.5313ZM46.6719 19.9376C46.1408 19.9376 45.6378 19.7558 45.2338 19.4221C45.1566 19.307 45.0679 19.2077 44.9221 19.1101C44.5881 18.7051 44.4062 18.2022 44.4062 17.6719C44.4062 16.4227 45.4226 15.4063 46.6719 15.4063C47.9211 15.4063 48.9375 16.4227 48.9375 17.6719C48.9375 18.9212 47.9211 19.9376 46.6719 19.9376Z" fill="#1166CB"/>
<path d="M50.0703 44.8594H45.5391C44.9135 44.8594 44.4062 45.3665 44.4062 45.9922C44.4062 46.6178 44.9135 47.125 45.5391 47.125H50.0703C50.6959 47.125 51.2031 46.6178 51.2031 45.9922C51.2031 45.3665 50.6959 44.8594 50.0703 44.8594Z" fill="#1166CB"/>
</svg>