
<svg width="70" height="70" viewBox="0 0 70 70" fill="none" xmlns="http://www.w3.org/2000/svg">
<g clip-path="url(#clip0_5438_44760)">
<path d="M39.2149 47.3138L44.521 42.579C44.6466 43.0036 44.7889 43.4818 44.9433 43.995C45.5136 45.8915 46.2524 48.2812 46.9167 50.2189C47.4663 51.8221 47.3833 53.5778 46.613 54.9683L44.8037 58.2342L36.0458 50.5314L39.2149 47.3138Z" stroke="white" stroke-width="2.5"/>
<path d="M23.7766 42.2987L22.267 35.3494C21.9158 35.6191 21.5196 35.9223 21.093 36.2468C19.5169 37.4458 17.5145 38.9449 15.8382 40.122C14.4512 41.096 13.4864 42.5652 13.2922 44.1429L12.8363 47.8486L24.4492 46.7646L23.7766 42.2987Z" stroke="white" stroke-width="2.5"/>
<path d="M21.0253 59.8747L21.0213 59.8666L21.0171 59.8585C19.638 57.1518 20.6909 53.9165 23.4169 52.5275C23.682 52.3925 24.0602 52.271 24.5544 52.1283L33.0205 54.8624C33.8499 56.0051 34.2733 57.3937 34.0698 58.8988C33.7892 60.7282 32.6952 62.3275 31.1348 63.1226L31.1267 63.1266L31.1187 63.1309L24.3743 66.6909L21.0253 59.8747Z" stroke="white" stroke-width="2.5"/>
<mask id="path-4-inside-1_5438_44760" fill="white">
<path fill-rule="evenodd" clip-rule="evenodd" d="M38.2711 52.5963C43.1135 48.6267 48.1295 43.0754 50.4352 35.9794C55.5927 20.1062 45.2345 2.51424 45.2345 2.51424C45.2345 2.51424 26.5143 10.658 21.3568 26.5313C19.0511 33.6273 19.8462 41.0667 21.4305 47.1245L38.2711 52.5963Z"/>
</mask>

<path d="M38.2711 52.5963L37.4986 54.9739L38.7988 55.3964L39.856 54.5297L38.2711 52.5963ZM45.2345 2.51424L47.3888 1.24578L46.2662 -0.660872L44.2372 0.221766L45.2345 2.51424ZM21.4305 47.1245L19.0119 47.757L19.3578 49.0796L20.658 49.5021L21.4305 47.1245ZM48.0575 35.2069C45.9576 41.6699 41.3368 46.8505 36.6862 50.6629L39.856 54.5297C44.8901 50.403 50.3015 44.481 52.8128 36.752L48.0575 35.2069ZM45.2345 2.51424C43.0802 3.7827 43.0799 3.78212 43.0796 3.78161C43.0795 3.78153 43.0793 3.78108 43.0792 3.78092C43.079 3.78059 43.0789 3.78053 43.0791 3.78073C43.0793 3.78112 43.0801 3.78258 43.0816 3.78507C43.0845 3.79006 43.0898 3.79923 43.0975 3.8125C43.1127 3.83904 43.1373 3.88197 43.1703 3.94071C43.2364 4.05821 43.3363 4.23882 43.4638 4.47787C43.7189 4.95617 44.084 5.66708 44.5093 6.57321C45.3613 8.38856 46.4473 10.9707 47.3775 14.0231C49.2552 20.185 50.4089 27.9703 48.0575 35.2069L52.8128 36.752C55.619 28.1153 54.1723 19.168 52.1604 12.5656C51.1457 9.23591 49.9645 6.42796 49.0355 4.44878C48.5703 3.45765 48.1664 2.67018 47.8753 2.12442C47.7296 1.85143 47.612 1.63859 47.5289 1.49065C47.4873 1.41666 47.4543 1.35888 47.4307 1.31787C47.4189 1.29737 47.4094 1.28107 47.4024 1.26903C47.3989 1.26301 47.396 1.25805 47.3938 1.25417C47.3926 1.25224 47.3916 1.25057 47.3908 1.24917C47.3904 1.24847 47.3899 1.24762 47.3897 1.24727C47.3892 1.24649 47.3888 1.24578 45.2345 2.51424ZM23.7344 27.3038C26.0857 20.0672 31.5951 14.4468 36.7361 10.5655C39.2828 8.64277 41.6791 7.19212 43.4355 6.2243C44.3121 5.74121 45.0253 5.38064 45.5129 5.14366C45.7566 5.02523 45.9436 4.93783 46.0661 4.8816C46.1273 4.85348 46.1724 4.83317 46.2003 4.82068C46.2143 4.81444 46.224 4.81015 46.2293 4.80782C46.2319 4.80666 46.2335 4.80598 46.2339 4.8058C46.2341 4.8057 46.234 4.80573 46.2337 4.80589C46.2335 4.80596 46.2331 4.80617 46.233 4.80621C46.2324 4.80644 46.2318 4.80671 45.2345 2.51424C44.2372 0.221766 44.2365 0.222096 44.2357 0.222457C44.2353 0.222619 44.2344 0.223012 44.2336 0.223336C44.2322 0.223986 44.2304 0.224761 44.2283 0.225662C44.2242 0.227465 44.2189 0.229771 44.2126 0.232581C44.1998 0.2382 44.1826 0.245835 44.161 0.255484C44.1178 0.27478 44.0571 0.302137 43.98 0.337546C43.8258 0.408355 43.6055 0.511423 43.3272 0.646673C42.7709 0.917067 41.9813 1.31674 41.0224 1.84515C39.1075 2.90031 36.5014 4.47769 33.7234 6.57506C28.2148 10.7339 21.7853 17.1221 18.9791 25.7587L23.7344 27.3038ZM23.8492 46.4919C22.3276 40.674 21.6345 33.7668 23.7344 27.3038L18.9791 25.7587C16.4678 33.4878 17.3649 41.4594 19.0119 47.757L23.8492 46.4919ZM20.658 49.5021L37.4986 54.9739L39.0437 50.2187L22.2031 44.7468L20.658 49.5021Z" fill="white" mask="url(#path-4-inside-1_5438_44760)"/>
<path d="M32.8381 24.3056C33.2527 23.0296 34.1572 21.9706 35.3526 21.3615C36.5481 20.7524 37.9365 20.6431 39.2125 21.0577C40.4884 21.4723 41.5475 22.3768 42.1566 23.5722C42.7657 24.7676 42.8749 26.1561 42.4603 27.432C42.0458 28.708 41.1413 29.767 39.9458 30.3761C38.7504 30.9852 37.362 31.0945 36.086 30.6799C34.81 30.2653 33.751 29.3608 33.1419 28.1654C32.5328 26.97 32.4235 25.5816 32.8381 24.3056Z" stroke="white" stroke-width="2.5"/>
</g>
<defs>
<clipPath id="clip0_5438_44760">
<rect width="70" height="70" fill="white"/>
</clipPath>
</defs>
</svg>