<?xml version="1.0" ?><svg viewBox="0 0 36 36" xmlns="http://www.w3.org/2000/svg">
<defs>
<style>.cls-emoji{fill:#fff;}</style></defs>
<title/><g id="winking">
<path class="cls-emoji" d="M6,18A15,15,0,0,1,19.5,3.08,14.76,14.76,0,0,0,18,3a15,15,0,0,0,0,30,14.76,14.76,0,0,0,1.5-.08A15,15,0,0,1,6,18Z"/>
<path class="cls-emoji" d="M18,34A16,16,0,1,1,34,18,16,16,0,0,1,18,34ZM18,4A14,14,0,1,0,32,18,14,14,0,0,0,18,4Z"/>
<path class="cls-emoji" d="M26,16a1,1,0,0,1-.89-.55L25,15.24a2,2,0,0,0-1.51-1.11,2,2,0,0,0-1.78.58,1,1,0,0,1-1.42-1.42,4.06,4.06,0,0,1,6.5,1.06l.1.2a1,1,0,0,1-.44,1.34A.93.93,0,0,1,26,16Z"/>
<path class="cls-emoji" d="M13,16a2,2,0,1,1,2-2A2,2,0,0,1,13,16Zm0-2Z"/>
<path class="cls-emoji" d="M18.37,26.1a7.77,7.77,0,0,1-1-.06,7.13,7.13,0,0,1-5.27-3.54,1,1,0,1,1,1.74-1A5.14,5.14,0,0,0,22,22.59l.3-.3a1,1,0,0,1,1.42,1.42l-.3.3A7.09,7.09,0,0,1,18.37,26.1Z"/>
</g>
</svg>