   <svg xmlns="http://www.w3.org/2000/svg" width="14" height="15" fill="none" viewBox="0 0 14 15">
                    <path fill="#1166CB" fill-rule="evenodd" d="M6.607 1.04a1.1 1.1 0 0 1 1.554.067l5.5 6a1.1 1.1 0 0 1 0 1.486l-5.5 6a1.1 1.1 0 1 1-1.622-1.486l4.819-5.257-4.819-5.257a1.1 1.1 0 0 1 .068-1.554Z" clip-rule="evenodd"/>
                    <path fill="#1166CB" fill-rule="evenodd" d="M.25 7.85a1.1 1.1 0 0 1 1.1-1.1h9.8a1.1 1.1 0 0 1 0 2.2h-9.8a1.1 1.1 0 0 1-1.1-1.1Z" clip-rule="evenodd"/>
    </svg>